<?xml version="1.0" encoding="utf-8"?>
<!-- Generator: Adobe Illustrator 24.1.2, SVG Export Plug-In . SVG Version: 6.00 Build 0)  -->
<svg version="1.1" id="Layer_1" xmlns="http://www.w3.org/2000/svg" xmlns:xlink="http://www.w3.org/1999/xlink" x="0px" y="0px"
	 viewBox="0 0 320 320" style="enable-background:new 0 0 320 320;" xml:space="preserve">
<style type="text/css">
	.st0{fill:#010101;}
</style>
<g>
	<g>
		<path class="st0" d="M188.28,162.62l0.46,25.93c0,0.22-0.17,0.37-0.5,0.44c-0.33,0.07-0.57,0.04-0.72-0.11l-52.06-59.27
			l-3.33-3.77c-2.44-2.66-4.53-4.5-6.27-5.49c-1.74-1-3.53-1.5-5.38-1.5c-0.15,0-0.22-0.22-0.22-0.67s0.07-0.67,0.22-0.67l4.66,0.11
			c0.96,0.07,2.37,0.11,4.22,0.11l8.44-0.11c1.04-0.07,10.29-0.11,11.77-0.11c0.59,0,1.04,0.15,1.33,0.44
			c0.29,0.3,0.81,0.93,1.55,1.89c1.26,1.7,2.15,2.85,2.66,3.44l30.41,36.29L188.28,162.62z M133.83,172.79
			c0,3.92,2.44,7.03,4.07,9.32c1.63,2.29,3.88,3.44,6.77,3.44c0.15,0,0.22,0.22,0.22,0.67s-0.07,0.67-0.22,0.67
			c-2.07,0-3.66-0.04-4.77-0.11l-5.99-0.11l-6.88,0.11c-1.26,0.07-3.07,0.11-5.44,0.11c-0.22,0-0.33-0.22-0.33-0.67
			s0.11-0.67,0.33-0.67c3.26,0,5.83-1.15,7.71-3.44C131.18,179.82,133.83,176.72,133.83,172.79"/>
	</g>
	<path class="st0" d="M188.69,131.75c0-3.92-2.65-7.03-4.54-9.32c-1.89-2.29-4.46-3.44-7.71-3.44c-0.22,0-0.33-0.22-0.33-0.67
		s0.11-0.67,0.33-0.67c2.37,0,4.18,0.04,5.44,0.11l6.88,0.11l5.99-0.11c1.11-0.07,2.7-0.11,4.77-0.11c0.15,0,0.22,0.22,0.22,0.67
		s-0.07,0.67-0.22,0.67c-2.89,0-5.14,1.15-6.77,3.44C191.13,124.72,188.69,127.83,188.69,131.75"/>
</g>
</svg>
